<svg
    xmlns="http://www.w3.org/2000/svg"
    width="33"
    height="32"
    viewBox="0 0 33 32"
    fill="none"
>
    <path
        fill-rule="evenodd"
        clip-rule="evenodd"
        d="M16.1563 4.29768C16.1305 4.30272 16.0039 4.32392 15.8751 4.3448C13.6704 4.7016 12.0916 7.2832 11.9291 10.7969C11.9251 10.8845 11.8531 10.9535 11.7655 10.954L9.25002 10.9687L6.77532 10.9832C6.64558 10.984 6.51769 11.0141 6.40122 11.0713C6.09378 11.2222 5.88786 11.5166 5.85362 11.8539C5.83506 12.0366 5.85922 12.4073 6.14218 16.2813C6.63066 22.9683 6.88042 26.2173 6.9209 26.4116C7.0897 27.2212 7.70538 27.9622 8.46386 28.2685C8.95994 28.4689 8.26322 28.4531 16.6251 28.4531H23.9085C24.1038 28.4531 24.298 28.4235 24.4844 28.3654C25.3787 28.0864 26.0275 27.4116 26.2659 26.5128C26.34 26.2334 27.4396 11.992 27.4025 11.793C27.3435 11.4772 27.1305 11.195 26.8451 11.0543C26.7517 11.0083 26.649 10.9842 26.5449 10.9839L24.0079 10.9761L21.3979 10.968C21.3507 10.9679 21.3124 10.9296 21.3122 10.8823C21.3038 8.6612 20.1955 6.04568 18.8257 5.0148C18.1011 4.46944 16.9111 4.14976 16.1563 4.29768ZM17.25 5.64184C18.7497 6.03488 19.7435 7.76264 20.0304 10.4754C20.0481 10.6422 20.0625 10.8215 20.0625 10.8738C20.0625 10.9262 20.02 10.9687 19.9675 10.9687H16.6203H13.5301C13.339 10.9687 13.1873 10.808 13.1983 10.6172C13.3952 7.22104 15.1331 5.08696 17.25 5.64184ZM17.4844 13.8256C18.6 14.0253 19.5625 14.5403 19.5625 14.9376C19.5625 15.2946 19.2579 15.371 18.8027 15.1282C16.704 14.0091 14.5838 14.4651 14.1682 16.125C13.8892 17.2389 14.7444 18.0824 16.8594 18.7795C19.0382 19.4978 19.9754 20.239 20.2199 21.4375C20.7163 23.8712 18.4723 25.5029 15.5 24.8694C14.2726 24.6078 12.9531 23.8655 12.9531 23.4366C12.9531 23.023 13.2828 22.9636 13.7599 23.2912C16.0918 24.8922 19.3164 24.282 19.4281 22.2187C19.4924 21.0307 18.6246 20.2418 16.4733 19.5326C14.2378 18.7957 13.3451 17.9781 13.2887 16.6158C13.2099 14.7095 15.1635 13.4102 17.4844 13.8256Z"
        fill="#FCFBFB"
    />
    <path
        fill-rule="evenodd"
        clip-rule="evenodd"
        d="M0.5 16V26C0.5 29.3137 3.18629 32 6.5 32H16.5H26.5C29.8137 32 32.5 29.3137 32.5 26V16V6C32.5 2.68629 29.8137 0 26.5 0H16.5H6.5C3.18629 0 0.5 2.68629 0.5 6V16ZM17.343 4.32984C19.4484 4.7292 21.1378 7.37896 21.3014 10.5382C21.313 10.7613 21.4969 10.9364 21.7202 10.9371L23.997 10.9445L26.4733 10.9525C26.6039 10.9529 26.7328 10.983 26.8501 11.0406C27.1857 11.2054 27.4375 11.5878 27.4375 11.9327C27.4375 12.1937 26.3458 26.1909 26.3101 26.3886C26.1491 27.2784 25.4453 28.0669 24.5533 28.3566C24.1012 28.5035 24.0739 28.504 16.3594 28.4939L9.33799 28.4847C9.16559 28.4845 8.99404 28.4606 8.82816 28.4136C7.48264 28.0325 6.93368 27.219 6.79864 25.4062C6.10048 16.035 5.84304 12.4672 5.83696 12.0782C5.8288 11.5622 6.018 11.2303 6.43064 11.0369C6.54837 10.9817 6.67672 10.9529 6.80673 10.9525L9.25784 10.9446L11.821 10.9364C11.8682 10.9363 11.9065 10.8981 11.9067 10.8509C11.915 9.42216 12.4647 7.42136 13.1533 6.31376C14.1369 4.73136 15.6594 4.01048 17.343 4.32984ZM16.3322 5.5956C14.5626 5.80104 13.4816 7.56736 13.2014 10.711C13.1905 10.8327 13.2864 10.9375 13.4086 10.9375H16.6155H19.948C20.0029 10.9375 20.0462 10.8907 20.0418 10.8359C19.811 7.95808 18.8354 6.11464 17.3115 5.67688C17.1669 5.63536 16.6141 5.55416 16.5625 5.56688C16.5539 5.56896 16.4502 5.58192 16.3322 5.5956ZM16.125 13.7837C13.651 14.011 12.4197 16.5458 13.9865 18.1858C14.5221 18.7463 15.2547 19.1409 16.4333 19.5034C18.486 20.1348 19.4502 20.9675 19.4507 22.1094C19.4517 24.2685 16.1975 24.947 13.7382 23.3005C13.2622 22.9818 12.9687 23.0454 12.9687 23.4672C12.9687 23.8609 14.4215 24.6416 15.5829 24.872C18.2504 25.4012 20.225 24.2146 20.2324 22.0782C20.2382 20.436 19.4167 19.6457 16.7996 18.7753C14.4882 18.0065 13.6673 17.0056 14.2985 15.7255C14.9678 14.368 16.7646 14.1 18.7098 15.0677C19.203 15.313 19.2914 15.325 19.4489 15.1676C19.6403 14.9762 19.5794 14.7337 19.2906 14.5377C18.4848 13.9908 17.2003 13.6849 16.125 13.7837Z"
        fill="#FC5424"
    />
    <path
        fill-rule="evenodd"
        clip-rule="evenodd"
        d="M16.43 4.27208C16.4689 4.2796 16.5251 4.27928 16.555 4.27144C16.5849 4.26368 16.5531 4.25752 16.4843 4.25792C16.4155 4.25824 16.3911 4.26464 16.43 4.27208ZM16.6952 4.27152C16.7253 4.27944 16.7746 4.27944 16.8047 4.27152C16.8347 4.26368 16.8101 4.25728 16.7499 4.25728C16.6898 4.25728 16.6651 4.26368 16.6952 4.27152ZM11.9135 10.7187C11.9135 10.7789 11.9199 10.8035 11.9277 10.7734C11.9356 10.7434 11.9356 10.6942 11.9277 10.6641C11.9199 10.634 11.9135 10.6586 11.9135 10.7187ZM14.8803 10.961C15.82 10.9655 17.3669 10.9655 18.3179 10.961C19.2688 10.9563 18.4999 10.9526 16.6093 10.9526C14.7187 10.9526 13.9407 10.9563 14.8803 10.961ZM5.82033 11.9844C5.82065 12.0531 5.82705 12.0776 5.83457 12.0387C5.84201 11.9998 5.84169 11.9436 5.83393 11.9137C5.82609 11.8838 5.81993 11.9156 5.82033 11.9844ZM16.6015 13.7724C16.6487 13.7795 16.7261 13.7795 16.7734 13.7724C16.8207 13.7652 16.7819 13.7594 16.6875 13.7594C16.5929 13.7594 16.5543 13.7652 16.6015 13.7724ZM16.539 14.4903C16.5691 14.4982 16.6183 14.4982 16.6483 14.4903C16.6784 14.4824 16.6539 14.476 16.5937 14.476C16.5335 14.476 16.5089 14.4824 16.539 14.4903ZM20.2604 22.0313C20.2604 22.1602 20.2659 22.2129 20.2727 22.1484C20.2795 22.084 20.2795 21.9785 20.2727 21.9141C20.2659 21.8496 20.2604 21.9023 20.2604 22.0313ZM25.5761 27.7266L25.4843 27.8282L25.5859 27.7363C25.6417 27.6858 25.6875 27.6402 25.6875 27.6348C25.6875 27.6106 25.6616 27.6319 25.5761 27.7266ZM12.914 28.4922C14.9207 28.4966 18.2043 28.4966 20.2109 28.4922C22.2175 28.4878 20.5757 28.4841 16.5624 28.4841C12.5491 28.4841 10.9074 28.4878 12.914 28.4922Z"
        fill="#FC916F"
    />
    <path
        fill-rule="evenodd"
        clip-rule="evenodd"
        d="M8.05482 10.961C8.76378 10.9656 9.92394 10.9656 10.6329 10.961C11.3419 10.9562 10.7618 10.9524 9.34386 10.9524C7.92586 10.9524 7.34578 10.9562 8.05482 10.961ZM22.6017 10.961C23.3192 10.9656 24.4935 10.9656 25.2111 10.961C25.9286 10.9562 25.3415 10.9524 23.9063 10.9524C22.4712 10.9524 21.8841 10.9562 22.6017 10.961Z"
        fill="#FCAC94"
    />
    <path
        fill-rule="evenodd"
        clip-rule="evenodd"
        d="M14.5625 17.5722C14.5625 17.5777 14.6083 17.6234 14.6641 17.6738L14.7656 17.7656L14.6739 17.6641C14.5883 17.5694 14.5625 17.5482 14.5625 17.5722Z"
        fill="#FCAC8C"
    />
</svg>